<svg xmlns="http://www.w3.org/2000/svg" xmlns:xlink="http://www.w3.org/1999/xlink" width="130" zoomAndPan="magnify" viewBox="0 0 97.5 30.000001" height="40" preserveAspectRatio="xMidYMid meet" version="1.0"><defs><clipPath id="405d0e95be"><path d="M 1.355469 0.601562 L 95.683594 0.601562 L 95.683594 28.324219 L 1.355469 28.324219 Z M 1.355469 0.601562 " clip-rule="nonzero"/></clipPath></defs><path fill="#624953" d="M 20.351562 15.761719 L 15.613281 20.445312 C 15.507812 20.550781 15.335938 20.550781 15.230469 20.445312 L 10.492188 15.761719 C 10.320312 15.59375 10.441406 15.300781 10.683594 15.300781 L 12.785156 15.300781 L 12.785156 11.453125 L 18.058594 11.453125 L 18.058594 15.300781 L 20.160156 15.300781 C 20.402344 15.300781 20.523438 15.59375 20.351562 15.761719 Z M 12.785156 9.777344 L 18.058594 9.777344 L 18.058594 10.585938 L 12.785156 10.585938 Z M 12.785156 8.402344 L 18.058594 8.402344 L 18.058594 9.015625 L 12.785156 9.015625 Z M 15.421875 4.71875 C 9.992188 4.71875 5.589844 9.082031 5.589844 14.460938 C 5.589844 19.84375 9.992188 24.207031 15.421875 24.207031 C 20.851562 24.207031 25.253906 19.84375 25.253906 14.460938 C 25.253906 9.082031 20.851562 4.71875 15.421875 4.71875 " fill-opacity="1" fill-rule="nonzero"/><g clip-path="url(#405d0e95be)"><path fill="#624953" d="M 82.160156 26.21875 L 15.339844 26.21875 C 8.78125 26.21875 3.476562 20.960938 3.476562 14.460938 C 3.476562 7.964844 8.78125 2.707031 15.339844 2.707031 L 82.160156 2.707031 C 88.71875 2.707031 94.023438 7.964844 94.023438 14.460938 C 94.023438 20.960938 88.71875 26.21875 82.160156 26.21875 Z M 82.160156 0.601562 L 15.339844 0.601562 C 7.609375 0.601562 1.355469 6.800781 1.355469 14.460938 C 1.355469 22.121094 7.609375 28.324219 15.339844 28.324219 L 82.160156 28.324219 C 89.890625 28.324219 96.148438 22.125 96.148438 14.460938 C 96.148438 6.800781 89.890625 0.601562 82.160156 0.601562 " fill-opacity="1" fill-rule="nonzero"/></g><path fill="#624953" d="M 33.734375 16.46875 L 32.757812 16.46875 L 32.757812 12.457031 L 33.742188 12.457031 C 34.148438 12.457031 35.472656 12.597656 35.472656 14.398438 C 35.472656 15.714844 34.839844 16.46875 33.734375 16.46875 Z M 33.84375 11.25 L 31.460938 11.25 C 31.386719 11.25 31.328125 11.308594 31.328125 11.382812 L 31.328125 17.542969 C 31.328125 17.617188 31.386719 17.675781 31.460938 17.675781 L 33.796875 17.675781 C 34.734375 17.675781 35.53125 17.347656 36.105469 16.734375 C 36.648438 16.144531 36.945312 15.3125 36.945312 14.390625 C 36.945312 13.460938 36.652344 12.671875 36.09375 12.109375 C 35.535156 11.546875 34.757812 11.25 33.84375 11.25 " fill-opacity="1" fill-rule="nonzero"/><path fill="#624953" d="M 40.957031 16.550781 C 39.75 16.550781 39.324219 15.457031 39.324219 14.4375 C 39.324219 13.816406 39.480469 12.375 40.945312 12.375 C 41.484375 12.375 41.898438 12.574219 42.183594 12.96875 C 42.441406 13.328125 42.582031 13.839844 42.582031 14.453125 C 42.582031 15.082031 42.421875 16.550781 40.957031 16.550781 Z M 40.996094 11.160156 C 39.113281 11.160156 37.847656 12.488281 37.847656 14.460938 C 37.847656 15.398438 38.117188 16.203125 38.628906 16.796875 C 39.175781 17.429688 39.964844 17.765625 40.910156 17.765625 C 43.082031 17.765625 44.054688 16.09375 44.054688 14.4375 C 44.054688 13.480469 43.769531 12.664062 43.230469 12.074219 C 42.679688 11.476562 41.90625 11.160156 40.996094 11.160156 " fill-opacity="1" fill-rule="nonzero"/><path fill="#624953" d="M 52.921875 11.25 L 51.785156 11.25 C 51.722656 11.25 51.671875 11.292969 51.65625 11.351562 C 51.59375 11.609375 51.503906 11.953125 51.402344 12.351562 C 51.144531 13.351562 50.8125 14.644531 50.609375 15.613281 C 50.328125 14.363281 49.773438 12.292969 49.515625 11.347656 C 49.5 11.289062 49.449219 11.25 49.390625 11.25 L 48.320312 11.25 C 48.257812 11.25 48.207031 11.292969 48.191406 11.351562 C 48.035156 11.96875 47.828125 12.746094 47.625 13.5 C 47.410156 14.304688 47.203125 15.074219 47.058594 15.667969 C 46.957031 15.15625 46.800781 14.445312 46.597656 13.53125 C 46.457031 12.890625 46.300781 12.167969 46.125 11.355469 C 46.109375 11.292969 46.058594 11.25 45.996094 11.25 L 44.753906 11.25 C 44.710938 11.25 44.671875 11.269531 44.648438 11.300781 C 44.625 11.332031 44.613281 11.375 44.625 11.414062 L 46.238281 17.578125 C 46.253906 17.632812 46.304688 17.675781 46.367188 17.675781 L 47.582031 17.675781 C 47.640625 17.675781 47.695312 17.636719 47.710938 17.578125 C 47.753906 17.414062 47.804688 17.234375 47.855469 17.042969 C 48.164062 15.925781 48.5625 14.46875 48.796875 13.480469 C 48.949219 14.113281 49.171875 14.972656 49.390625 15.808594 C 49.5625 16.460938 49.722656 17.074219 49.847656 17.574219 C 49.859375 17.632812 49.914062 17.675781 49.976562 17.675781 L 51.195312 17.675781 C 51.253906 17.675781 51.304688 17.636719 51.320312 17.578125 L 53.050781 11.417969 C 53.0625 11.378906 53.054688 11.335938 53.027344 11.300781 C 53.003906 11.269531 52.964844 11.25 52.921875 11.25 " fill-opacity="1" fill-rule="nonzero"/><path fill="#624953" d="M 59.28125 11.25 L 58.214844 11.25 C 58.140625 11.25 58.082031 11.308594 58.082031 11.382812 L 58.082031 13.519531 C 58.082031 14.230469 58.082031 14.957031 58.109375 15.558594 C 57.691406 14.800781 56.957031 13.546875 56.335938 12.492188 C 56.082031 12.058594 55.839844 11.652344 55.644531 11.316406 C 55.625 11.277344 55.578125 11.25 55.53125 11.25 L 54.0625 11.25 C 53.988281 11.25 53.929688 11.308594 53.929688 11.382812 L 53.929688 17.542969 C 53.929688 17.617188 53.988281 17.675781 54.0625 17.675781 L 55.136719 17.675781 C 55.210938 17.675781 55.269531 17.617188 55.269531 17.542969 L 55.269531 15.464844 C 55.269531 14.449219 55.261719 13.679688 55.242188 13.140625 C 55.847656 14.261719 57.148438 16.515625 57.761719 17.578125 L 57.777344 17.609375 C 57.800781 17.648438 57.84375 17.675781 57.894531 17.675781 L 59.28125 17.675781 C 59.355469 17.675781 59.414062 17.617188 59.414062 17.542969 L 59.414062 11.382812 C 59.414062 11.308594 59.355469 11.25 59.28125 11.25 " fill-opacity="1" fill-rule="nonzero"/><path fill="#624953" d="M 65.425781 16.453125 L 62.410156 16.453125 L 62.410156 11.382812 C 62.410156 11.308594 62.351562 11.25 62.277344 11.25 L 61.109375 11.25 C 61.039062 11.25 60.976562 11.308594 60.976562 11.382812 L 60.976562 17.542969 C 60.976562 17.617188 61.039062 17.675781 61.109375 17.675781 L 65.285156 17.675781 C 65.351562 17.675781 65.40625 17.625 65.414062 17.5625 L 65.554688 16.605469 C 65.5625 16.566406 65.550781 16.527344 65.523438 16.5 C 65.5 16.472656 65.460938 16.453125 65.425781 16.453125 " fill-opacity="1" fill-rule="nonzero"/><path fill="#624953" d="M 69.0625 16.550781 C 67.855469 16.550781 67.425781 15.457031 67.425781 14.4375 C 67.425781 13.816406 67.585938 12.375 69.050781 12.375 C 69.585938 12.375 70.003906 12.574219 70.285156 12.96875 C 70.546875 13.328125 70.683594 13.839844 70.683594 14.453125 C 70.683594 15.082031 70.527344 16.550781 69.0625 16.550781 Z M 69.097656 11.160156 C 67.214844 11.160156 65.953125 12.488281 65.953125 14.460938 C 65.953125 15.398438 66.222656 16.203125 66.734375 16.796875 C 67.28125 17.429688 68.070312 17.765625 69.015625 17.765625 C 71.1875 17.765625 72.160156 16.09375 72.160156 14.4375 C 72.160156 13.480469 71.875 12.664062 71.335938 12.074219 C 70.785156 11.476562 70.011719 11.160156 69.097656 11.160156 " fill-opacity="1" fill-rule="nonzero"/><path fill="#624953" d="M 74.910156 14.886719 L 74.925781 14.839844 C 75.210938 13.96875 75.449219 13.238281 75.613281 12.699219 C 75.765625 13.1875 76.003906 13.867188 76.34375 14.835938 L 76.363281 14.886719 Z M 76.5 11.335938 C 76.480469 11.285156 76.429688 11.25 76.375 11.25 L 74.914062 11.25 C 74.859375 11.25 74.808594 11.285156 74.789062 11.339844 L 72.644531 17.5 C 72.628906 17.539062 72.636719 17.585938 72.660156 17.621094 C 72.6875 17.65625 72.726562 17.675781 72.769531 17.675781 L 73.917969 17.675781 C 73.976562 17.675781 74.027344 17.640625 74.042969 17.585938 L 74.5625 16.105469 L 76.71875 16.105469 L 77.257812 17.589844 C 77.277344 17.640625 77.328125 17.675781 77.382812 17.675781 L 78.613281 17.675781 C 78.65625 17.675781 78.695312 17.65625 78.722656 17.617188 C 78.746094 17.585938 78.753906 17.539062 78.738281 17.5 L 76.5 11.335938 " fill-opacity="1" fill-rule="nonzero"/><path fill="#624953" d="M 82.015625 16.46875 L 81.039062 16.46875 L 81.039062 12.457031 L 82.019531 12.457031 C 82.429688 12.457031 83.753906 12.597656 83.753906 14.398438 C 83.753906 15.714844 83.121094 16.46875 82.015625 16.46875 Z M 82.121094 11.25 L 79.738281 11.25 C 79.667969 11.25 79.605469 11.308594 79.605469 11.382812 L 79.605469 17.542969 C 79.605469 17.617188 79.667969 17.675781 79.738281 17.675781 L 82.074219 17.675781 C 83.011719 17.675781 83.8125 17.347656 84.382812 16.734375 C 84.925781 16.144531 85.226562 15.3125 85.226562 14.390625 C 85.226562 13.460938 84.929688 12.671875 84.371094 12.109375 C 83.816406 11.546875 83.039062 11.25 82.121094 11.25 " fill-opacity="1" fill-rule="nonzero"/></svg>