<svg xmlns="http://www.w3.org/2000/svg" xmlns:xlink="http://www.w3.org/1999/xlink" width="377" zoomAndPan="magnify" viewBox="0 0 283.5 283.500005" height="377" preserveAspectRatio="xMidYMid meet" version="1.0"><defs><clipPath id="f38d94d26e"><path d="M 29.660156 34.359375 L 255.410156 34.359375 L 255.410156 248.859375 L 29.660156 248.859375 Z M 29.660156 34.359375 " clip-rule="nonzero"/></clipPath></defs><path fill="#e5dad8" d="M 142.761719 39.34375 L 176.082031 106.726562 L 250.667969 117.535156 L 196.714844 170.003906 L 209.449219 244.050781 L 142.761719 209.101562 L 76.074219 244.050781 L 88.808594 170.003906 L 34.851562 117.535156 L 109.394531 106.726562 Z M 142.761719 39.34375 " fill-opacity="1" fill-rule="nonzero"/><g clip-path="url(#f38d94d26e)"><path fill="#7d2089" d="M 212.292969 248.691406 L 142.535156 212.117188 L 72.777344 248.691406 L 86.097656 171.222656 L 29.660156 116.316406 L 107.632812 105.011719 L 142.535156 34.527344 L 177.4375 105.011719 L 255.410156 116.316406 L 198.972656 171.222656 Z M 42.617188 120.550781 L 92.554688 169.105469 L 80.769531 237.699219 L 142.535156 205.316406 L 204.253906 237.699219 L 192.472656 169.105469 L 242.453125 120.550781 L 173.417969 110.554688 L 142.535156 48.128906 L 111.652344 110.507812 Z M 42.617188 120.550781 " fill-opacity="1" fill-rule="nonzero"/></g></svg>