<svg xmlns="http://www.w3.org/2000/svg" xmlns:xlink="http://www.w3.org/1999/xlink" width="377" zoomAndPan="magnify" viewBox="0 0 283.5 283.500005" height="377" preserveAspectRatio="xMidYMid meet" version="1.0"><defs><clipPath id="2e0a7d3b70"><path d="M 0 0 L 283 0 L 283 283 L 0 283 Z M 0 0 " clip-rule="nonzero"/></clipPath></defs><path fill="#7d2089" d="M 178.769531 60.304688 L 104.851562 60.304688 C 80.367188 60.304688 60.425781 80.25 60.425781 104.730469 L 60.425781 178.648438 C 60.425781 203.132812 80.367188 223.074219 104.851562 223.074219 L 178.769531 223.074219 C 203.25 223.074219 223.195312 203.132812 223.195312 178.648438 L 223.195312 104.851562 C 223.195312 80.25 203.25 60.304688 178.769531 60.304688 Z M 209.222656 178.769531 C 209.222656 195.609375 195.609375 209.222656 178.769531 209.222656 L 104.851562 209.222656 C 88.011719 209.222656 74.277344 195.609375 74.277344 178.769531 L 74.277344 104.851562 C 74.277344 88.011719 88.011719 74.277344 104.851562 74.277344 L 178.769531 74.277344 C 195.609375 74.277344 209.222656 87.890625 209.222656 104.851562 Z M 209.222656 178.769531 " fill-opacity="1" fill-rule="nonzero"/><path fill="#7d2089" d="M 196.203125 97.207031 C 196.203125 102.699219 191.785156 107.238281 186.171875 107.238281 C 180.679688 107.238281 176.144531 102.820312 176.144531 97.207031 C 176.144531 91.714844 180.5625 87.175781 186.171875 87.175781 C 191.785156 87.296875 196.203125 91.714844 196.203125 97.207031 Z M 196.203125 97.207031 " fill-opacity="1" fill-rule="nonzero"/><path fill="#7d2089" d="M 141.75 100.3125 C 118.941406 100.3125 100.3125 118.941406 100.3125 141.75 C 100.3125 164.558594 118.941406 183.1875 141.75 183.1875 C 164.558594 183.1875 183.1875 164.558594 183.1875 141.75 C 183.1875 118.941406 164.679688 100.3125 141.75 100.3125 Z M 141.75 169.214844 C 126.582031 169.214844 114.285156 156.917969 114.285156 141.75 C 114.285156 126.582031 126.582031 114.285156 141.75 114.285156 C 156.917969 114.285156 169.214844 126.582031 169.214844 141.75 C 169.214844 156.917969 156.917969 169.214844 141.75 169.214844 Z M 141.75 169.214844 " fill-opacity="1" fill-rule="nonzero"/><g clip-path="url(#2e0a7d3b70)"><path fill="#7d2089" d="M 141.75 283.5 C 63.648438 283.5 0 219.96875 0 141.75 C 0 63.648438 63.648438 0 141.75 0 C 219.96875 0 283.5 63.648438 283.5 141.75 C 283.5 219.96875 219.96875 283.5 141.75 283.5 Z M 141.75 7.761719 C 67.828125 7.761719 7.761719 67.828125 7.761719 141.75 C 7.761719 215.671875 67.828125 275.738281 141.75 275.738281 C 215.671875 275.738281 275.738281 215.671875 275.738281 141.75 C 275.738281 67.828125 215.671875 7.761719 141.75 7.761719 Z M 141.75 7.761719 " fill-opacity="1" fill-rule="nonzero"/></g></svg>